<svg width="418" height="80" viewBox="0 0 418 80" fill="none" xmlns="http://www.w3.org/2000/svg">
<g clip-path="url(#clip0_45_4)">
<g clip-path="url(#clip1_45_4)">
<path d="M4.11417 34.5788C4.38189 34.5788 4.58268 34.378 4.58268 34.1103V25.9448C4.58268 25.6771 4.38189 25.4763 4.11417 25.4763C3.84645 25.4763 3.64566 25.6771 3.64566 25.9448V34.0434C3.57873 34.3111 3.84645 34.5788 4.11417 34.5788Z" fill="black"/>
<path d="M3.57886 39.3307C3.57886 39.5985 3.77965 39.7993 4.04737 39.7993C4.31509 39.7993 4.51588 39.5985 4.51588 39.3307V36.7205C4.51588 36.4527 4.31509 36.252 4.04737 36.252C3.77965 36.252 3.57886 36.4527 3.57886 36.7205V39.3307Z" fill="black"/>
<path d="M85.0327 53.0515C84.765 53.0515 84.5642 53.2523 84.5642 53.52V61.6186C84.5642 61.8863 84.765 62.0871 85.0327 62.0871C85.3004 62.0871 85.5012 61.8863 85.5012 61.6186V53.587C85.5012 53.3192 85.3004 53.0515 85.0327 53.0515Z" fill="black"/>
<path d="M85.0327 63.8271C84.765 63.8271 84.5642 64.0279 84.5642 64.2957V66.9059C84.5642 67.1737 84.765 67.3745 85.0327 67.3745C85.3004 67.3745 85.5012 67.1737 85.5012 66.9059V64.2957C85.5012 64.0279 85.3004 63.8271 85.0327 63.8271Z" fill="black"/>
<path d="M72.9185 3.99161C72.9854 4.05854 73.1193 4.12547 73.2531 4.12547C73.387 4.12547 73.5209 4.05854 73.5878 3.99161C73.7886 3.79082 73.7886 3.45617 73.5878 3.32231L72.5169 2.25142C72.3161 2.05063 71.9815 2.05063 71.8476 2.25142C71.6468 2.45221 71.6468 2.78687 71.8476 2.92073L72.9185 3.99161Z" fill="black"/>
<path d="M76.5328 7.60587C76.5997 7.6728 76.7335 7.73973 76.8674 7.73973C77.0013 7.73973 77.1351 7.6728 77.2021 7.60587C77.4028 7.40508 77.4028 7.07043 77.2021 6.93657L76.1312 5.86568C75.9304 5.66489 75.5957 5.66489 75.4619 5.86568C75.2611 6.06647 75.2611 6.40112 75.4619 6.53498L76.5328 7.60587Z" fill="black"/>
<path d="M72.1823 7.73973C72.3161 7.73973 72.45 7.6728 72.5169 7.60587L73.5878 6.53498C73.7886 6.33419 73.7886 5.99954 73.5878 5.86568C73.387 5.66489 73.0524 5.66489 72.9185 5.86568L71.8476 6.93657C71.6468 7.13736 71.6468 7.47201 71.8476 7.60587C71.9145 7.6728 72.0484 7.73973 72.1823 7.73973Z" fill="black"/>
<path d="M75.7294 4.19237C75.8632 4.19237 75.9971 4.12544 76.064 4.0585L77.1349 2.98762C77.3357 2.78683 77.3357 2.45218 77.1349 2.31832C76.9341 2.11753 76.5995 2.11753 76.4656 2.31832L75.3947 3.3892C75.1939 3.58999 75.1939 3.92464 75.3947 4.0585C75.5286 4.12544 75.5955 4.19237 75.7294 4.19237Z" fill="black"/>
<path d="M14.89 74.0676C14.6892 73.8668 14.3545 73.8668 14.2207 74.0676C14.0199 74.2684 14.0199 74.603 14.2207 74.7369L15.2915 75.8078C15.3585 75.8747 15.4923 75.9416 15.6262 75.9416C15.7601 75.9416 15.8939 75.8747 15.9608 75.8078C16.1616 75.607 16.1616 75.2723 15.9608 75.1385L14.89 74.0676Z" fill="black"/>
<path d="M18.4373 77.6149C18.2365 77.4142 17.9019 77.4142 17.768 77.6149C17.5672 77.8157 17.5672 78.1504 17.768 78.2843L18.8389 79.3551C18.9058 79.4221 19.0397 79.489 19.1736 79.489C19.3074 79.489 19.4413 79.4221 19.5082 79.3551C19.709 79.1543 19.709 78.8197 19.5082 78.6858L18.4373 77.6149Z" fill="black"/>
<path d="M15.2915 77.6149L14.2207 78.6858C14.0199 78.8866 14.0199 79.2213 14.2207 79.3551C14.2876 79.4221 14.4215 79.489 14.5553 79.489C14.6892 79.489 14.823 79.4221 14.89 79.3551L15.9608 78.2843C16.1616 78.0835 16.1616 77.7488 15.9608 77.6149C15.827 77.4142 15.4923 77.4142 15.2915 77.6149Z" fill="black"/>
<path d="M18.8389 74.0676L17.768 75.1385C17.5672 75.3393 17.5672 75.674 17.768 75.8078C17.835 75.8748 17.9688 75.9417 18.1027 75.9417C18.2365 75.9417 18.3704 75.8748 18.4373 75.8078L19.5082 74.7369C19.709 74.5362 19.709 74.2015 19.5082 74.0676C19.3074 73.9338 19.0397 73.8669 18.8389 74.0676Z" fill="black"/>
<path d="M80.2806 27.4841C78.8751 27.4841 77.7373 28.6219 77.7373 30.0275C77.7373 31.433 78.8751 32.5708 80.2806 32.5708C81.6862 32.5708 82.824 31.433 82.824 30.0275C82.8909 28.6219 81.7531 27.4841 80.2806 27.4841ZM80.2806 31.6338C79.4106 31.6338 78.6743 30.8976 78.6743 30.0275C78.6743 29.1574 79.4106 28.4212 80.2806 28.4212C81.1507 28.4212 81.887 29.1574 81.887 30.0275C81.887 30.8976 81.1507 31.6338 80.2806 31.6338Z" fill="black"/>
<path d="M4.11415 59.0752C2.70861 59.0752 1.5708 60.213 1.5708 61.6185C1.5708 63.0241 2.70861 64.1619 4.11415 64.1619C5.51968 64.1619 6.65749 63.0241 6.65749 61.6185C6.65749 60.2799 5.51968 59.0752 4.11415 59.0752ZM4.11415 63.2249C3.24405 63.2249 2.50782 62.4886 2.50782 61.6185C2.50782 60.7485 3.24405 60.0122 4.11415 60.0122C4.98424 60.0122 5.72047 60.7485 5.72047 61.6185C5.65354 62.5556 4.98424 63.2249 4.11415 63.2249Z" fill="black"/>
<path d="M76.0642 78.9536H66.4932C66.2254 78.9536 66.0247 79.1544 66.0247 79.4221C66.0247 79.6898 66.2254 79.8906 66.4932 79.8906H76.1311C76.3988 79.8906 76.5996 79.6898 76.5996 79.4221C76.5996 79.1544 76.3988 78.9536 76.0642 78.9536Z" fill="black"/>
<path d="M82.3556 78.9536H79.2769C79.0091 78.9536 78.8083 79.1544 78.8083 79.4221C78.8083 79.6898 79.0091 79.8906 79.2769 79.8906H82.3556C82.6234 79.8906 82.8242 79.6898 82.8242 79.4221C82.8242 79.1544 82.6234 78.9536 82.3556 78.9536Z" fill="black"/>
<path d="M82.3556 75.6069H75.6626C75.3949 75.6069 75.1941 75.8077 75.1941 76.0754C75.1941 76.3432 75.3949 76.544 75.6626 76.544H82.3556C82.6233 76.544 82.8241 76.3432 82.8241 76.0754C82.8241 75.8747 82.6233 75.6069 82.3556 75.6069Z" fill="black"/>
<path d="M70.5759 75.6069C70.3082 75.6069 70.1074 75.8077 70.1074 76.0754C70.1074 76.3432 70.3082 76.544 70.5759 76.544H72.7177C72.9854 76.544 73.1862 76.3432 73.1862 76.0754C73.1862 75.8077 72.9854 75.6069 72.7177 75.6069H70.5759Z" fill="black"/>
<path d="M7.26002 1.04664H16.898C17.1657 1.04664 17.3665 0.845852 17.3665 0.578131C17.3665 0.31041 17.1657 0.109619 16.898 0.109619H7.26002C6.99229 0.109619 6.7915 0.31041 6.7915 0.578131C6.7915 0.845852 6.99229 1.04664 7.26002 1.04664Z" fill="black"/>
<path d="M0.968511 1.04664H4.0473C4.31502 1.04664 4.51581 0.845852 4.51581 0.578131C4.51581 0.31041 4.31502 0.109619 4.0473 0.109619H0.968511C0.70079 0.109619 0.5 0.31041 0.5 0.578131C0.5 0.845852 0.70079 1.04664 0.968511 1.04664Z" fill="black"/>
<path d="M7.72842 3.38916H1.03541C0.767685 3.38916 0.566895 3.58995 0.566895 3.85767C0.566895 4.12539 0.767685 4.32618 1.03541 4.32618H7.72842C7.99614 4.32618 8.19693 4.12539 8.19693 3.85767C8.19693 3.58995 7.99614 3.38916 7.72842 3.38916Z" fill="black"/>
<path d="M10.6065 3.38916C10.3387 3.38916 10.1379 3.58995 10.1379 3.85767C10.1379 4.12539 10.3387 4.32618 10.6065 4.32618H12.7482C13.0159 4.32618 13.2167 4.12539 13.2167 3.85767C13.2167 3.58995 13.0159 3.38916 12.7482 3.38916H10.6065Z" fill="black"/>
<path d="M60.0678 43.2127C60.6701 43.7481 61.0048 44.4174 61.0048 45.2206C61.0048 45.4883 61.2056 45.6891 61.4733 45.6891C61.741 45.6891 61.9418 45.4883 61.9418 45.2206C61.9418 44.2167 61.4733 43.2127 60.6701 42.4765C60.0008 41.8741 59.0638 41.5394 58.1268 41.4056V39.4646C58.1268 39.1969 57.926 38.9961 57.6583 38.9961C57.3906 38.9961 57.1898 39.1969 57.1898 39.4646V41.4056C56.2528 41.4725 55.3157 41.8741 54.6464 42.4765C53.7763 43.2127 53.3748 44.1497 53.3748 45.2206C53.3748 46.2246 53.8433 47.2285 54.6464 47.9648C55.3157 48.5671 56.2528 48.9018 57.1898 49.0356V54.7247C56.4535 54.6578 55.7842 54.3901 55.2488 53.9215C54.6464 53.3861 54.3118 52.7168 54.3118 51.9136C54.3118 51.6459 54.111 51.4451 53.8433 51.4451C53.5755 51.4451 53.3748 51.6459 53.3748 51.9136C53.3748 52.9176 53.8433 53.9215 54.6464 54.6578C55.3157 55.2602 56.2528 55.5948 57.1898 55.7287V57.6696C57.1898 57.9374 57.3906 58.1382 57.6583 58.1382C57.926 58.1382 58.1268 57.9374 58.1268 57.6696V55.7287C59.0638 55.6617 60.0008 55.2602 60.6701 54.6578C61.5402 53.9215 61.9418 52.9845 61.9418 51.9136C61.9418 50.9097 61.4733 49.9057 60.6701 49.1695C60.0008 48.5671 59.0638 48.2325 58.1268 48.0986V42.4095C58.863 42.4765 59.5323 42.7442 60.0678 43.2127ZM55.2488 47.1616C54.6464 46.6261 54.3118 45.9568 54.3118 45.1537C54.3118 44.4174 54.6464 43.6812 55.2488 43.1458C55.7842 42.6773 56.4535 42.4095 57.1898 42.3426V47.9648C56.4535 47.8978 55.7842 47.6301 55.2488 47.1616ZM60.0678 49.8388C60.6701 50.3742 61.0048 51.0435 61.0048 51.8467C61.0048 52.5829 60.6701 53.3192 60.0678 53.8546C59.5323 54.3231 58.863 54.5908 58.1268 54.6578V49.0356C58.863 49.1695 59.5323 49.4372 60.0678 49.8388Z" fill="black"/>
<path d="M29.9492 39.7993C30.0831 39.5985 30.0831 39.2639 29.8823 39.13C29.6815 38.9962 29.3469 38.9962 29.213 39.197L24.3271 45.6892L19.4412 39.197C19.3073 38.9962 18.9727 38.9292 18.7719 39.13C18.5711 39.2639 18.5042 39.5985 18.705 39.7993L23.8586 46.6262V50.3074H22.1184C21.8507 50.3074 21.6499 50.5082 21.6499 50.7759C21.6499 51.0436 21.8507 51.2444 22.1184 51.2444H23.8586V55.1264C23.8586 55.3941 24.0594 55.5949 24.3271 55.5949C24.5948 55.5949 24.7956 55.3941 24.7956 55.1264V51.2444H26.5358C26.8035 51.2444 27.0043 51.0436 27.0043 50.7759C27.0043 50.5082 26.8035 50.3074 26.5358 50.3074H24.7956V46.6262L29.9492 39.7993Z" fill="black"/>
<path d="M36.0399 23.5352H37.7801V27.4171C37.7801 27.6849 37.9809 27.8856 38.2486 27.8856C38.5164 27.8856 38.7172 27.6849 38.7172 27.4171V23.5352H40.4573C40.7251 23.5352 40.9258 23.3344 40.9258 23.0667C40.9258 22.7989 40.7251 22.5982 40.4573 22.5982H38.7172V20.2556H43.67C45.8787 20.2556 47.7527 18.4485 47.7527 16.1728V15.2358C47.7527 13.0271 45.9456 11.1531 43.67 11.1531H38.2486C37.9809 11.1531 37.7801 11.3539 37.7801 11.6216V18.5823V19.2516H36.7762C36.5085 19.2516 36.3077 19.4524 36.3077 19.7202C36.3077 19.9879 36.5085 20.1887 36.7762 20.1887H37.7801V22.5312H36.0399C35.7722 22.5312 35.5714 22.732 35.5714 22.9997C35.5045 23.3344 35.7722 23.5352 36.0399 23.5352ZM38.7172 12.224H43.67C45.3432 12.224 46.7488 13.6295 46.7488 15.3028V16.2398C46.7488 17.913 45.3432 19.3186 43.67 19.3186H38.7172V18.7162V12.224Z" fill="black"/>
<path d="M73.7216 56.2642V19.7872C73.7216 19.7203 73.7216 19.6534 73.6547 19.5864C73.5878 19.5195 73.5878 19.4526 73.5209 19.4526L41.8629 1.11367C41.729 1.04674 41.5282 1.04674 41.3944 1.11367L9.73644 19.3187C9.6695 19.3856 9.60257 19.3856 9.60257 19.4526C9.53564 19.5864 9.53564 19.6534 9.53564 19.7203V56.2642C9.53564 56.465 9.60257 56.5989 9.80336 56.6658L41.4613 74.9378C41.5283 75.0047 41.5952 75.0047 41.729 75.0047C41.796 75.0047 41.9298 75.0047 41.9968 74.9378L73.4539 56.7327C73.6547 56.5989 73.7216 56.465 73.7216 56.2642ZM41.5952 2.0507L72.2492 19.7203L41.5952 37.4568L10.9412 19.7872L41.5952 2.0507ZM10.4727 20.5904L41.1267 38.26V73.6661L10.4727 55.9965V20.5904ZM42.1306 73.6661V38.3269L72.7177 20.5904V55.9965L42.1306 73.6661Z" fill="black"/>
</g>
<g clip-path="url(#clip2_45_4)">
<path d="M121.819 29.6209V30.2696C121.819 31.3997 121.428 31.9647 120.647 31.9647C120.584 31.9647 119.625 31.5043 117.769 30.5835C115.914 29.6558 114.285 29.1919 112.883 29.1919C112.423 29.1919 111.875 29.3559 111.24 29.6837C110.606 30.0046 110.135 30.451 109.828 31.023C109.521 31.588 109.367 32.5994 109.367 34.0573C109.367 36.9451 110.351 38.389 112.318 38.389C112.911 38.389 113.661 38.1239 114.568 37.5938C115.474 37.0707 115.998 36.8091 116.137 36.8091C117.183 36.8091 117.707 37.9879 117.707 40.3456C117.707 41.643 117.462 42.5568 116.974 43.0869C116.758 43.3311 116.507 43.4531 116.221 43.4531C115.935 43.4531 115.391 43.2927 114.589 42.9718C113.793 42.651 113.239 42.4905 112.925 42.4905C111.621 42.4905 110.647 42.7905 110.006 43.3904C109.566 43.8019 109.347 44.6529 109.347 45.9434C109.347 47.2408 109.531 48.4999 109.901 49.7205C110.271 50.9343 110.623 51.869 110.958 52.5247C111.286 53.1803 111.45 53.5152 111.45 53.5291C111.45 54.2476 110.742 54.6068 109.326 54.6068L108.635 54.5859H107.924C104.527 54.5859 102.371 54.4429 101.457 54.1569C100.857 53.9686 100.558 53.6233 100.558 53.1211C100.558 52.6188 100.987 52.1271 101.845 51.6458C102.696 51.1714 103.194 50.5925 103.341 49.9089C103.397 49.6508 103.424 46.8292 103.424 41.4442C103.424 36.0522 103.327 32.8331 103.131 31.7868C102.929 30.7335 102.434 29.8023 101.646 28.9931C100.857 28.184 100.463 27.5562 100.463 27.1098C100.463 26.6564 100.809 26.3739 101.499 26.2623C102.727 26.06 105.807 25.9588 110.738 25.9588L112.946 25.8961H115.154L115.865 25.917C118.551 25.917 120.13 26.0739 120.605 26.3878C121.414 26.918 121.819 27.9957 121.819 29.6209ZM126.642 28.3967V27.8631C126.642 27.0749 126.952 26.4053 127.573 25.8542C128.187 25.3101 128.857 25.0381 129.582 25.0381H130.231C130.44 25.0799 130.611 25.1009 130.744 25.1009C131.399 25.1009 131.978 25.3938 132.48 25.9798C132.99 26.5657 133.244 27.1237 133.244 27.6539V28.1875C133.216 28.327 133.202 28.4281 133.202 28.4909C133.202 29.0629 132.882 29.6209 132.24 30.165C131.598 30.7161 130.89 30.9916 130.116 30.9916H129.478C128.717 30.9916 128.062 30.7475 127.51 30.2592C126.959 29.7779 126.684 29.2233 126.684 28.5955L126.642 28.3967ZM130.524 54.4499H128.578C126.764 54.4499 125.679 54.3976 125.324 54.2929C124.961 54.1953 124.78 53.9023 124.78 53.414C124.78 52.9327 125.121 52.3503 125.805 51.6667C126.482 50.9901 126.911 50.3065 127.092 49.6159C127.266 48.9254 127.354 47.1327 127.354 44.2379C127.354 41.3431 127.28 39.6376 127.134 39.1214C126.98 38.6052 126.513 38.1588 125.732 37.7821C124.944 37.4055 124.549 36.9556 124.549 36.4324C124.549 35.9093 124.912 35.5256 125.638 35.2815C127.27 34.7374 129.076 34.4653 131.057 34.4653H131.361C132.149 34.4653 132.606 34.7967 132.732 35.4593C132.794 35.843 132.826 38.1309 132.826 42.3231C132.826 46.5084 132.92 48.9602 133.108 49.6787C133.29 50.3902 133.764 51.1505 134.531 51.9597C135.292 52.7618 135.672 53.2641 135.672 53.4663V53.707C135.672 54.2022 133.956 54.4499 130.524 54.4499ZM162.133 52.9327C162.133 53.4419 161.721 53.8151 160.898 54.0523C160.075 54.2894 158.694 54.408 156.755 54.408C154.809 54.408 153.647 54.272 153.271 54C152.887 53.7279 152.695 53.4036 152.695 53.0269C152.695 52.6502 152.87 52.0817 153.218 51.3214C153.56 50.5611 153.773 49.9472 153.857 49.4799C153.94 49.0195 153.982 47.4535 153.982 44.782C153.982 42.1104 153.752 40.2898 153.292 39.3202C152.838 38.3437 151.945 37.8554 150.613 37.8554C149.274 37.8554 148.189 38.4343 147.359 39.5923C146.801 40.3665 146.522 41.7895 146.522 43.8612C146.522 47.2792 146.836 49.7868 147.464 51.3842C147.847 52.3119 148.039 52.9118 148.039 53.1838C148.039 53.7 147.725 54.0209 147.097 54.1464C146.47 54.279 145.109 54.3452 143.017 54.3452C140.924 54.3452 139.662 54.2057 139.229 53.9267C138.79 53.6477 138.57 53.271 138.57 52.7967C138.57 52.3154 138.933 51.8376 139.658 51.3633C140.377 50.8889 140.785 50.4565 140.882 50.0658C140.98 49.6752 141.029 47.9453 141.029 44.8761C141.029 41.8 140.924 40.0003 140.715 39.4772C140.513 38.954 140.105 38.3437 139.491 37.6461C138.877 36.9556 138.57 36.6033 138.57 36.5894V36.1604C138.57 35.9302 138.741 35.7174 139.083 35.5221C140.268 34.8455 142.033 34.5072 144.377 34.5072C145.033 34.5072 145.58 34.8246 146.02 35.4593C146.466 36.1011 146.79 36.4219 146.993 36.4219C147.195 36.4219 147.676 36.2022 148.437 35.7628C149.19 35.3163 149.602 35.0792 149.671 35.0513C150.759 34.549 151.774 34.2979 152.716 34.2979H153.365C155.75 34.2979 157.456 35.2501 158.481 37.1544C159.13 38.396 159.454 41.3745 159.454 46.0899C159.454 48.608 159.538 50.0449 159.705 50.4006C159.866 50.7564 160.312 51.161 161.045 51.6144C161.77 52.0747 162.133 52.5142 162.133 52.9327ZM176.321 46.0061C176.321 45.3923 176.129 45.0854 175.745 45.0854H175.212C174.87 45.1551 174.612 45.19 174.437 45.19C173.196 45.19 172.153 45.5527 171.309 46.2782C170.465 46.9967 170.043 47.8128 170.043 48.7266V49.1974C170.043 49.888 170.263 50.4878 170.702 50.997C171.135 51.4993 171.665 51.7504 172.292 51.7504H172.941C173.841 51.7504 174.612 51.4714 175.254 50.9133C175.895 50.3553 176.216 49.8112 176.216 49.2811C176.272 49.0091 176.3 48.8312 176.3 48.7475L176.342 48.4231V47.5442L176.363 47.2094V46.3096C176.335 46.177 176.321 46.0759 176.321 46.0061ZM184.618 52.4828V52.7967C184.618 53.2571 184.105 53.6896 183.08 54.0941C182.062 54.4917 180.851 54.6905 179.449 54.6905C178.584 54.6905 177.841 54.3034 177.221 53.5291C176.879 53.0897 176.61 52.8699 176.415 52.8699C176.227 52.856 175.902 53.0129 175.442 53.3408C173.886 54.408 172.209 54.9416 170.409 54.9416C170.395 54.9416 170.381 54.9486 170.367 54.9626C168.596 54.9626 167.18 54.5057 166.119 53.5919C165.059 52.6781 164.522 51.3981 164.508 49.7519C164.508 46.2084 167.232 43.9798 172.68 43.066C173.991 42.8637 174.776 42.7068 175.034 42.5952C175.822 42.2673 176.216 41.5384 176.216 40.4084C176.216 39.2784 175.962 38.4657 175.452 37.9705C174.936 37.4683 174.34 37.2171 173.663 37.2171C172.582 37.2171 171.605 37.7926 170.733 38.9436C169.862 40.0945 168.847 40.67 167.689 40.67C167.012 40.67 166.499 40.4851 166.151 40.1154C165.802 39.7387 165.627 39.3516 165.627 38.954C165.627 37.7542 166.255 36.8021 167.511 36.0976C169.596 34.9257 171.804 34.3398 174.134 34.3398H175.191C176.363 34.3398 177.486 34.5874 178.56 35.0827C179.627 35.5849 180.454 36.3452 181.04 37.3636C181.626 38.382 181.919 40.663 181.919 44.2065C181.919 47.75 182.03 49.7903 182.253 50.3274C182.477 50.8645 182.926 51.2621 183.603 51.5202C184.28 51.7713 184.618 52.0922 184.618 52.4828ZM210.912 52.9327C210.912 53.4419 210.5 53.8151 209.677 54.0523C208.854 54.2894 207.473 54.408 205.534 54.408C203.588 54.408 202.426 54.272 202.05 54C201.666 53.7279 201.474 53.4036 201.474 53.0269C201.474 52.6502 201.648 52.0817 201.997 51.3214C202.346 50.5611 202.559 49.9472 202.635 49.4799C202.719 49.0195 202.761 47.4535 202.761 44.782C202.761 42.1104 202.534 40.2898 202.081 39.3202C201.621 38.3437 200.724 37.8554 199.392 37.8554C198.053 37.8554 196.968 38.4343 196.138 39.5923C195.58 40.3665 195.301 41.7895 195.301 43.8612C195.301 47.2792 195.615 49.7868 196.242 51.3842C196.626 52.3119 196.818 52.9118 196.818 53.1838C196.818 53.7 196.504 54.0209 195.876 54.1464C195.248 54.279 193.888 54.3452 191.796 54.3452C189.703 54.3452 188.441 54.2057 188.008 53.9267C187.569 53.6477 187.349 53.271 187.349 52.7967C187.349 52.3154 187.712 51.8376 188.437 51.3633C189.155 50.8889 189.564 50.4565 189.661 50.0658C189.759 49.6752 189.808 47.9453 189.808 44.8761C189.808 41.8 189.703 40.0003 189.494 39.4772C189.292 38.954 188.883 38.3437 188.27 37.6461C187.656 36.9556 187.349 36.6033 187.349 36.5894V36.1604C187.349 35.9302 187.52 35.7174 187.862 35.5221C189.047 34.8455 190.812 34.5072 193.156 34.5072C193.812 34.5072 194.359 34.8246 194.799 35.4593C195.245 36.1011 195.569 36.4219 195.772 36.4219C195.974 36.4219 196.455 36.2022 197.216 35.7628C197.969 35.3163 198.38 35.0792 198.45 35.0513C199.538 34.549 200.553 34.2979 201.495 34.2979H202.144C204.529 34.2979 206.235 35.2501 207.26 37.1544C207.909 38.396 208.233 41.3745 208.233 46.0899C208.233 48.608 208.317 50.0449 208.484 50.4006C208.645 50.7564 209.091 51.161 209.824 51.6144C210.549 52.0747 210.912 52.5142 210.912 52.9327ZM229.986 50.0135C230.516 50.0135 230.781 50.3762 230.781 51.1017C230.781 51.8341 229.923 52.6293 228.207 53.4873C226.491 54.3452 224.814 54.7742 223.174 54.7742H222.704C221.357 54.7742 220.077 54.5092 218.864 53.979C216.492 52.9397 214.856 51.1749 213.956 48.6847C213.524 47.457 213.308 46.2363 213.308 45.0226V44.5413C213.308 41.786 214.215 39.4004 216.028 37.3845C216.935 36.3731 218.041 35.5988 219.345 35.0617C220.649 34.5246 221.989 34.2561 223.363 34.2561C225.951 34.2561 227.946 34.6432 229.348 35.4175C230.178 35.8848 230.593 36.6417 230.593 37.688C230.593 39.5853 229.993 40.5339 228.793 40.5339C228.061 40.5339 227.192 39.9933 226.188 38.9122C225.19 37.8379 224.134 37.3008 223.018 37.3008C221.664 37.3008 220.552 38.1379 219.68 39.812C219.192 40.7676 218.94 42.2743 218.926 44.332C218.926 44.36 218.926 44.3879 218.926 44.4158C218.926 46.3898 219.436 48.0185 220.454 49.302C221.493 50.5925 222.808 51.2377 224.399 51.2377C225.285 51.2377 226.373 51.0354 227.663 50.6308C228.947 50.2193 229.721 50.0135 229.986 50.0135ZM243.588 36.9346H243.002C242.144 36.9346 241.321 37.3811 240.533 38.2739C239.751 39.1668 239.361 40.234 239.361 41.4756V41.8C239.361 42.3022 239.64 42.5533 240.198 42.5533L240.407 42.5952H241.851L241.956 42.5742L245.367 42.3754C245.576 42.3336 245.712 42.3127 245.775 42.3127C246.472 42.3127 246.821 41.9499 246.821 41.2245V40.5549C246.821 39.6411 246.493 38.8075 245.838 38.0542C245.182 37.3078 244.432 36.9346 243.588 36.9346ZM239.612 46.6653C239.612 48.0255 240.25 49.2044 241.527 50.2018C242.482 50.9482 243.696 51.3214 245.168 51.3214C245.831 51.3214 246.821 51.1296 248.139 50.7459C249.451 50.3693 250.211 50.1809 250.42 50.1809C251.034 50.1809 251.341 50.5123 251.341 51.1749C251.341 51.9701 250.525 52.7723 248.893 53.5814C247.267 54.3906 245.583 54.7952 243.839 54.7952H242.939C242.911 54.7952 242.876 54.7952 242.835 54.7952C241.733 54.7952 240.609 54.5719 239.466 54.1255C237.205 53.2536 235.598 51.726 234.642 49.5427C233.986 48.043 233.659 46.62 233.659 45.2737V44.332C233.659 42.9579 233.899 41.6291 234.38 40.3456C235.273 37.9321 236.86 36.1952 239.141 35.135C240.501 34.5072 241.931 34.1933 243.431 34.1933H243.902C246.12 34.1933 247.993 34.8839 249.521 36.265C250.323 36.9974 250.94 37.8798 251.373 38.9122C251.798 39.9515 252.011 41.0048 252.011 42.072C252.011 43.1462 251.488 43.8507 250.441 44.1856C248.969 44.6669 246.242 44.9075 242.259 44.9075C241.199 44.9075 240.491 45.0401 240.135 45.3051C239.786 45.5702 239.612 46.0236 239.612 46.6653ZM268.95 35.1141C269.564 35.4698 269.871 36.2197 269.871 37.3636C269.871 38.5076 269.791 39.2644 269.631 39.6341C269.463 40.0038 269.142 40.1887 268.668 40.1887C267.901 40.1887 267.081 39.6341 266.209 38.525C265.33 37.4229 264.221 36.8719 262.882 36.8719C262.122 36.8719 261.515 37.0707 261.061 37.4683C260.615 37.8589 260.392 38.2948 260.392 38.7761C260.392 39.5923 260.786 40.2724 261.574 40.8164C261.958 41.0745 263.182 41.6361 265.247 42.501C267.311 43.366 268.79 44.2588 269.683 45.1796C270.569 46.1003 271.012 47.3489 271.012 48.9254C271.012 50.5088 270.339 51.8864 268.992 53.0583C267.646 54.2301 265.916 54.8161 263.803 54.8161H262.725C260.081 54.8161 258.097 54.5022 256.771 53.8744C255.844 53.4419 255.38 52.4061 255.38 50.7669C255.38 49.1346 255.687 48.3185 256.301 48.3185C257.082 48.3185 258.048 48.9533 259.199 50.2228C260.35 51.4853 261.598 52.1166 262.945 52.1166C263.761 52.1166 264.451 51.9422 265.016 51.5934C265.581 51.2516 265.864 50.7076 265.864 49.9612C265.864 49.2218 265.47 48.5591 264.682 47.9732C264.256 47.6593 263.116 47.1013 261.26 46.2991C259.398 45.5039 258.072 44.7331 257.284 43.9868C256.098 42.8707 255.505 41.4965 255.505 39.8643C255.505 38.239 256.199 36.8928 257.588 35.8255C258.976 34.7513 260.597 34.2142 262.453 34.2142H263.007C265.923 34.2142 267.904 34.5142 268.95 35.1141ZM299.44 51.3214C302.265 51.3075 303.677 49.8845 303.677 47.0525C303.677 45.5248 303.444 44.4681 302.976 43.8821C302.188 42.8637 301.794 42.2499 301.794 42.0406C301.794 41.2385 303.067 40.8374 305.613 40.8374C307.497 40.8374 308.982 40.9664 310.07 41.2245C310.831 41.4059 311.211 41.793 311.211 42.3859C311.211 42.7277 311.044 43.1637 310.709 43.6938C310.381 44.2309 310.189 44.6634 310.133 44.9912C310.077 45.3121 309.976 46.1736 309.83 47.5756C309.69 48.9707 309.614 49.7205 309.6 49.8252C309.425 51.0808 309.087 51.9352 308.585 52.3886C308.089 52.8351 307.249 53.2361 306.063 53.5919C303.573 54.3383 301.25 54.7114 299.095 54.7114H298.279C296.374 54.7114 294.536 54.3452 292.764 53.6128C289.34 52.1968 286.996 49.7903 285.733 46.3933C285.078 44.6355 284.75 42.7556 284.75 40.7537V39.8957C284.75 37.9914 285.13 36.1255 285.89 34.2979C287.446 30.5521 290.002 28.0061 293.56 26.6599C295.192 26.0321 297.044 25.7182 299.116 25.7182C299.771 25.7182 300.535 25.7775 301.407 25.8961C302.279 26.0216 303.385 26.0844 304.724 26.0844C306.07 26.0844 307.141 26.3809 307.936 26.9738C308.731 27.5667 309.129 28.62 309.129 30.1336C309.129 32.2123 308.721 33.2516 307.905 33.2516C307.521 33.2516 306.621 32.7215 305.205 31.6612C303.789 30.601 302.701 29.9069 301.941 29.5791C301.173 29.2512 300.162 29.0873 298.906 29.0873C297.658 29.1013 296.528 29.4082 295.516 30.0081C292.524 31.8077 291.028 35.1175 291.028 39.9375C291.028 43.3555 291.837 46.1073 293.455 48.1929C295.073 50.2786 297.068 51.3214 299.44 51.3214ZM324.227 36.9346H323.641C322.783 36.9346 321.96 37.3811 321.172 38.2739C320.391 39.1668 320 40.234 320 41.4756V41.8C320 42.3022 320.279 42.5533 320.837 42.5533L321.046 42.5952H322.49L322.595 42.5742L326.006 42.3754C326.215 42.3336 326.351 42.3127 326.414 42.3127C327.111 42.3127 327.46 41.9499 327.46 41.2245V40.5549C327.46 39.6411 327.132 38.8075 326.477 38.0542C325.828 37.3078 325.078 36.9346 324.227 36.9346ZM320.251 46.6653C320.251 48.0255 320.889 49.2044 322.166 50.2018C323.121 50.9482 324.335 51.3214 325.807 51.3214C326.477 51.3214 327.467 51.1296 328.778 50.7459C330.09 50.3693 330.85 50.1809 331.059 50.1809C331.673 50.1809 331.98 50.5123 331.98 51.1749C331.98 51.9701 331.164 52.7723 329.532 53.5814C327.907 54.3906 326.222 54.7952 324.478 54.7952H323.578C323.55 54.7952 323.516 54.7952 323.474 54.7952C322.372 54.7952 321.249 54.5719 320.105 54.1255C317.845 53.2536 316.237 51.726 315.281 49.5427C314.625 48.043 314.298 46.62 314.298 45.2737V44.332C314.298 42.9579 314.538 41.6291 315.019 40.3456C315.912 37.9321 317.499 36.1952 319.78 35.135C321.14 34.5072 322.57 34.1933 324.07 34.1933H324.541C326.759 34.1933 328.632 34.8839 330.16 36.265C330.962 36.9974 331.579 37.8798 332.012 38.9122C332.437 39.9515 332.65 41.0048 332.65 42.072C332.65 43.1462 332.127 43.8507 331.08 44.1856C329.609 44.6669 326.881 44.9075 322.898 44.9075C321.838 44.9075 321.13 45.0401 320.774 45.3051C320.425 45.5702 320.251 46.0236 320.251 46.6653ZM359.425 52.9327C359.425 53.4419 359.013 53.8151 358.19 54.0523C357.36 54.2894 355.975 54.408 354.036 54.408C352.097 54.408 350.936 54.272 350.552 54C350.168 53.7279 349.977 53.4036 349.977 53.0269C349.977 52.6502 350.151 52.0817 350.5 51.3214C350.849 50.5611 351.065 49.9472 351.149 49.4799C351.225 49.0195 351.264 47.4535 351.264 44.782C351.264 42.1104 351.037 40.2898 350.584 39.3202C350.13 38.3437 349.234 37.8554 347.894 37.8554C346.562 37.8554 345.481 38.4343 344.651 39.5923C344.093 40.3665 343.814 41.7895 343.814 43.8612C343.814 47.2792 344.124 49.7868 344.745 51.3842C345.129 52.3119 345.321 52.9118 345.321 53.1838C345.321 53.7 345.007 54.0209 344.379 54.1464C343.751 54.279 342.394 54.3452 340.309 54.3452C338.216 54.3452 336.95 54.2057 336.511 53.9267C336.078 53.6477 335.862 53.271 335.862 52.7967C335.862 52.3154 336.221 51.8376 336.94 51.3633C337.665 50.8889 338.073 50.4565 338.164 50.0658C338.261 49.6752 338.31 47.9453 338.31 44.8761C338.31 41.8 338.209 40.0003 338.007 39.4772C337.805 38.954 337.397 38.3437 336.783 37.6461C336.169 36.9556 335.862 36.6033 335.862 36.5894V36.1604C335.862 35.9302 336.033 35.7174 336.375 35.5221C337.553 34.8455 339.315 34.5072 341.659 34.5072C342.314 34.5072 342.865 34.8246 343.312 35.4593C343.751 36.1011 344.072 36.4219 344.274 36.4219C344.484 36.4219 344.965 36.2022 345.718 35.7628C346.478 35.3163 346.89 35.0792 346.953 35.0513C348.048 34.549 349.063 34.2979 349.998 34.2979H350.657C353.042 34.2979 354.744 35.2501 355.763 37.1544C356.418 38.396 356.746 41.3745 356.746 46.0899C356.746 48.608 356.826 50.0449 356.987 50.4006C357.154 50.7564 357.601 51.161 358.326 51.6144C359.059 52.0747 359.425 52.5142 359.425 52.9327ZM364.248 28.3967V27.8631C364.248 27.0749 364.555 26.4053 365.169 25.8542C365.79 25.3101 366.463 25.0381 367.188 25.0381H367.837C368.046 25.0799 368.217 25.1009 368.35 25.1009C369.006 25.1009 369.584 25.3938 370.087 25.9798C370.589 26.5657 370.84 27.1237 370.84 27.6539V28.1875C370.819 28.327 370.809 28.4281 370.809 28.4909C370.809 29.0629 370.488 29.6209 369.846 30.165C369.204 30.7161 368.496 30.9916 367.722 30.9916H367.084C366.323 30.9916 365.668 30.7475 365.117 30.2592C364.566 29.7779 364.29 29.2233 364.29 28.5955L364.248 28.3967ZM368.13 54.4499H366.184C364.37 54.4499 363.286 54.3976 362.93 54.2929C362.567 54.1953 362.386 53.9023 362.386 53.414C362.386 52.9327 362.728 52.3503 363.411 51.6667C364.088 50.9901 364.517 50.3065 364.698 49.6159C364.873 48.9254 364.96 47.1327 364.96 44.2379C364.96 41.3431 364.887 39.6376 364.74 39.1214C364.587 38.6052 364.119 38.1588 363.338 37.7821C362.55 37.4055 362.156 36.9556 362.156 36.4324C362.156 35.9093 362.518 35.5256 363.244 35.2815C364.876 34.7374 366.683 34.4653 368.664 34.4653H368.967C369.755 34.4653 370.212 34.7967 370.338 35.4593C370.401 35.843 370.432 38.1309 370.432 42.3231C370.432 46.5084 370.526 48.9602 370.715 49.6787C370.896 50.3902 371.37 51.1505 372.138 51.9597C372.898 52.7618 373.278 53.2641 373.278 53.4663V53.707C373.278 54.2022 371.562 54.4499 368.13 54.4499ZM398.62 52.8176C398.62 53.9197 397.061 54.4708 393.943 54.4708C393.015 54.4708 392.38 54.3418 392.038 54.0837C391.696 53.8256 391.417 53.4803 391.201 53.0478C390.985 52.6153 390.804 52.3991 390.657 52.3991C390.518 52.3991 390.099 52.6223 389.402 53.0687C388.704 53.5082 387.965 53.8988 387.183 54.2406C386.402 54.5824 385.377 54.7533 384.107 54.7533C382.838 54.7533 381.764 54.4813 380.885 53.9372C380.006 53.3931 379.319 52.6014 378.823 51.5621C378.328 50.5297 378.081 48.1929 378.081 44.5518C378.081 40.9176 378 38.9296 377.84 38.5878C377.686 38.246 377.247 37.9112 376.522 37.5833C375.803 37.2625 375.444 36.8614 375.444 36.3801C375.444 35.7244 375.852 35.2884 376.668 35.0722C377.938 34.7304 379.51 34.5595 381.387 34.5595C382.287 34.5595 382.873 34.9501 383.145 35.7314C383.417 36.5056 383.553 38.6715 383.553 42.229C383.553 45.7864 383.671 48.0255 383.908 48.9463C384.215 50.2298 384.902 50.9936 385.97 51.2377C386.242 51.3075 386.521 51.3423 386.807 51.3423C387.295 51.3423 387.797 51.2482 388.313 51.0598C389.164 50.7599 389.803 50.3135 390.228 49.7205C390.661 49.1276 390.877 47.6035 390.877 45.1482C390.877 42.6998 390.751 40.9699 390.5 39.9585C390.256 38.954 389.911 38.11 389.464 37.4264C389.011 36.7428 388.784 36.258 388.784 35.972C388.784 35.0164 390.542 34.5386 394.058 34.5386H394.633C395.338 34.5386 395.819 34.6816 396.077 34.9676C396.328 35.2466 396.454 35.9581 396.454 37.102L396.37 40.0631L396.349 40.67V43.6938C396.349 46.6932 396.429 48.5487 396.59 49.2602C396.757 49.9647 397.137 50.7076 397.73 51.4888C398.323 52.2631 398.62 52.706 398.62 52.8176ZM415.434 35.1141C416.048 35.4698 416.354 36.2197 416.354 37.3636C416.354 38.5076 416.274 39.2644 416.114 39.6341C415.946 40.0038 415.626 40.1887 415.151 40.1887C414.384 40.1887 413.564 39.6341 412.692 38.525C411.814 37.4229 410.704 36.8719 409.365 36.8719C408.605 36.8719 407.998 37.0707 407.545 37.4683C407.098 37.8589 406.875 38.2948 406.875 38.7761C406.875 39.5923 407.269 40.2724 408.057 40.8164C408.441 41.0745 409.665 41.6361 411.73 42.501C413.795 43.366 415.273 44.2588 416.166 45.1796C417.052 46.1003 417.495 47.3489 417.495 48.9254C417.495 50.5088 416.822 51.8864 415.476 53.0583C414.129 54.2301 412.399 54.8161 410.286 54.8161H409.208C406.565 54.8161 404.58 54.5022 403.255 53.8744C402.327 53.4419 401.863 52.4061 401.863 50.7669C401.863 49.1346 402.17 48.3185 402.784 48.3185C403.565 48.3185 404.531 48.9533 405.682 50.2228C406.833 51.4853 408.082 52.1166 409.428 52.1166C410.244 52.1166 410.935 51.9422 411.5 51.5934C412.065 51.2516 412.347 50.7076 412.347 49.9612C412.347 49.2218 411.953 48.5591 411.165 47.9732C410.739 47.6593 409.599 47.1013 407.743 46.2991C405.881 45.5039 404.556 44.7331 403.767 43.9868C402.582 42.8707 401.989 41.4965 401.989 39.8643C401.989 38.239 402.683 36.8928 404.071 35.8255C405.459 34.7513 407.081 34.2142 408.936 34.2142H409.491C412.406 34.2142 414.387 34.5142 415.434 35.1141Z" fill="black"/>
</g>
</g>
<defs>
<clipPath id="clip0_45_4">
<rect width="417" height="79.7809" fill="white" transform="translate(0.5 0.109619)"/>
</clipPath>
<clipPath id="clip1_45_4">
<rect width="85.0013" height="79.7809" fill="white" transform="translate(0.5 0.109619)"/>
</clipPath>
<clipPath id="clip2_45_4">
<rect width="317.04" height="29.9179" fill="white" transform="translate(100.46 25.041)"/>
</clipPath>
</defs>
</svg>
